<svg xmlns="http://www.w3.org/2000/svg" viewBox="0 0 46 32" width="552" height="384" shape-rendering="crispEdges"><rect x="5" y="2" width="1" height="1" fill="#111d3a"/><rect x="24" y="2" width="3" height="1" fill="#111d3a"/><rect x="4" y="3" width="1" height="1" fill="#111d3a"/><rect x="5" y="3" width="1" height="1" fill="#8fe4ff"/><rect x="6" y="3" width="1" height="1" fill="#111d3a"/><rect x="22" y="3" width="2" height="1" fill="#111d3a"/><rect x="24" y="3" width="1" height="1" fill="#3fb2e6"/><rect x="25" y="3" width="2" height="1" fill="#8fe4ff"/><rect x="27" y="3" width="1" height="1" fill="#111d3a"/><rect x="4" y="4" width="1" height="1" fill="#111d3a"/><rect x="5" y="4" width="2" height="1" fill="#3fb2e6"/><rect x="7" y="4" width="1" height="1" fill="#111d3a"/><rect x="21" y="4" width="1" height="1" fill="#111d3a"/><rect x="22" y="4" width="2" height="1" fill="#3fb2e6"/><rect x="24" y="4" width="2" height="1" fill="#8fe4ff"/><rect x="26" y="4" width="2" height="1" fill="#3fb2e6"/><rect x="28" y="4" width="1" height="1" fill="#111d3a"/><rect x="4" y="5" width="1" height="1" fill="#111d3a"/><rect x="5" y="5" width="3" height="1" fill="#3fb2e6"/><rect x="8" y="5" width="1" height="1" fill="#111d3a"/><rect x="20" y="5" width="1" height="1" fill="#111d3a"/><rect x="21" y="5" width="2" height="1" fill="#3fb2e6"/><rect x="23" y="5" width="2" height="1" fill="#8fe4ff"/><rect x="25" y="5" width="4" height="1" fill="#3fb2e6"/><rect x="29" y="5" width="1" height="1" fill="#111d3a"/><rect x="4" y="6" width="1" height="1" fill="#111d3a"/><rect x="5" y="6" width="3" height="1" fill="#3fb2e6"/><rect x="8" y="6" width="1" height="1" fill="#8fe4ff"/><rect x="9" y="6" width="1" height="1" fill="#111d3a"/><rect x="19" y="6" width="1" height="1" fill="#111d3a"/><rect x="20" y="6" width="2" height="1" fill="#3fb2e6"/><rect x="22" y="6" width="2" height="1" fill="#8fe4ff"/><rect x="24" y="6" width="5" height="1" fill="#3fb2e6"/><rect x="29" y="6" width="1" height="1" fill="#8fe4ff"/><rect x="30" y="6" width="1" height="1" fill="#111d3a"/><rect x="4" y="7" width="1" height="1" fill="#111d3a"/><rect x="5" y="7" width="2" height="1" fill="#3fb2e6"/><rect x="7" y="7" width="2" height="1" fill="#8fe4ff"/><rect x="9" y="7" width="1" height="1" fill="#3fb2e6"/><rect x="10" y="7" width="1" height="1" fill="#111d3a"/><rect x="18" y="7" width="1" height="1" fill="#111d3a"/><rect x="19" y="7" width="2" height="1" fill="#3fb2e6"/><rect x="21" y="7" width="2" height="1" fill="#8fe4ff"/><rect x="23" y="7" width="5" height="1" fill="#3fb2e6"/><rect x="28" y="7" width="2" height="1" fill="#8fe4ff"/><rect x="30" y="7" width="1" height="1" fill="#3fb2e6"/><rect x="31" y="7" width="2" height="1" fill="#111d3a"/><rect x="4" y="8" width="1" height="1" fill="#111d3a"/><rect x="5" y="8" width="1" height="1" fill="#3fb2e6"/><rect x="6" y="8" width="2" height="1" fill="#8fe4ff"/><rect x="8" y="8" width="3" height="1" fill="#3fb2e6"/><rect x="11" y="8" width="1" height="1" fill="#111d3a"/><rect x="16" y="8" width="2" height="1" fill="#111d3a"/><rect x="18" y="8" width="2" height="1" fill="#3fb2e6"/><rect x="20" y="8" width="2" height="1" fill="#8fe4ff"/><rect x="22" y="8" width="5" height="1" fill="#3fb2e6"/><rect x="27" y="8" width="2" height="1" fill="#8fe4ff"/><rect x="29" y="8" width="4" height="1" fill="#3fb2e6"/><rect x="33" y="8" width="1" height="1" fill="#111d3a"/><rect x="4" y="9" width="1" height="1" fill="#111d3a"/><rect x="5" y="9" width="2" height="1" fill="#8fe4ff"/><rect x="7" y="9" width="5" height="1" fill="#3fb2e6"/><rect x="12" y="9" width="1" height="1" fill="#111d3a"/><rect x="15" y="9" width="1" height="1" fill="#111d3a"/><rect x="16" y="9" width="3" height="1" fill="#3fb2e6"/><rect x="19" y="9" width="1" height="1" fill="#8fe4ff"/><rect x="20" y="9" width="10" height="1" fill="#f6cd5f"/><rect x="30" y="9" width="3" height="1" fill="#3fb2e6"/><rect x="33" y="9" width="1" height="1" fill="#8fe4ff"/><rect x="34" y="9" width="1" height="1" fill="#111d3a"/><rect x="4" y="10" width="1" height="1" fill="#111d3a"/><rect x="5" y="10" width="1" height="1" fill="#8fe4ff"/><rect x="6" y="10" width="5" height="1" fill="#3fb2e6"/><rect x="11" y="10" width="2" height="1" fill="#8fe4ff"/><rect x="13" y="10" width="1" height="1" fill="#111d3a"/><rect x="16" y="10" width="2" height="1" fill="#111d3a"/><rect x="18" y="10" width="3" height="1" fill="#f6cd5f"/><rect x="21" y="10" width="2" height="1" fill="#111d3a"/><rect x="23" y="10" width="1" height="1" fill="#f6cd5f"/><rect x="24" y="10" width="2" height="1" fill="#111d3a"/><rect x="26" y="10" width="6" height="1" fill="#f6cd5f"/><rect x="32" y="10" width="2" height="1" fill="#111d3a"/><rect x="4" y="11" width="1" height="1" fill="#111d3a"/><rect x="5" y="11" width="5" height="1" fill="#3fb2e6"/><rect x="10" y="11" width="2" height="1" fill="#8fe4ff"/><rect x="12" y="11" width="2" height="1" fill="#3fb2e6"/><rect x="14" y="11" width="2" height="1" fill="#111d3a"/><rect x="16" y="11" width="5" height="1" fill="#f6cd5f"/><rect x="21" y="11" width="2" height="1" fill="#111d3a"/><rect x="23" y="11" width="1" height="1" fill="#f6cd5f"/><rect x="24" y="11" width="2" height="1" fill="#111d3a"/><rect x="26" y="11" width="8" height="1" fill="#f6cd5f"/><rect x="34" y="11" width="1" height="1" fill="#111d3a"/><rect x="5" y="12" width="1" height="1" fill="#111d3a"/><rect x="6" y="12" width="3" height="1" fill="#3fb2e6"/><rect x="9" y="12" width="2" height="1" fill="#8fe4ff"/><rect x="11" y="12" width="4" height="1" fill="#3fb2e6"/><rect x="15" y="12" width="5" height="1" fill="#f6cd5f"/><rect x="20" y="12" width="7" height="1" fill="#111d3a"/><rect x="27" y="12" width="1" height="1" fill="#f6cd5f"/><rect x="28" y="12" width="4" height="1" fill="#ffffff"/><rect x="32" y="12" width="3" height="1" fill="#f6cd5f"/><rect x="35" y="12" width="1" height="1" fill="#111d3a"/><rect x="6" y="13" width="3" height="1" fill="#111d3a"/><rect x="9" y="13" width="1" height="1" fill="#8fe4ff"/><rect x="10" y="13" width="4" height="1" fill="#3fb2e6"/><rect x="14" y="13" width="1" height="1" fill="#f6cd5f"/><rect x="15" y="13" width="5" height="1" fill="#e3a01e"/><rect x="20" y="13" width="2" height="1" fill="#111d3a"/><rect x="22" y="13" width="2" height="1" fill="#e3a01e"/><rect x="24" y="13" width="1" height="1" fill="#f6cd5f"/><rect x="25" y="13" width="2" height="1" fill="#111d3a"/><rect x="27" y="13" width="1" height="1" fill="#e3a01e"/><rect x="28" y="13" width="1" height="1" fill="#ffffff"/><rect x="29" y="13" width="2" height="1" fill="#111d3a"/><rect x="31" y="13" width="1" height="1" fill="#ffffff"/><rect x="32" y="13" width="4" height="1" fill="#e3a01e"/><rect x="36" y="13" width="1" height="1" fill="#111d3a"/><rect x="9" y="14" width="3" height="1" fill="#111d3a"/><rect x="12" y="14" width="2" height="1" fill="#3fb2e6"/><rect x="14" y="14" width="2" height="1" fill="#f6cd5f"/><rect x="16" y="14" width="4" height="1" fill="#e3a01e"/><rect x="20" y="14" width="2" height="1" fill="#111d3a"/><rect x="22" y="14" width="3" height="1" fill="#e3a01e"/><rect x="25" y="14" width="2" height="1" fill="#111d3a"/><rect x="27" y="14" width="1" height="1" fill="#e3a01e"/><rect x="28" y="14" width="1" height="1" fill="#ffffff"/><rect x="29" y="14" width="2" height="1" fill="#111d3a"/><rect x="31" y="14" width="1" height="1" fill="#ffffff"/><rect x="32" y="14" width="4" height="1" fill="#e3a01e"/><rect x="36" y="14" width="1" height="1" fill="#111d3a"/><rect x="12" y="15" width="2" height="1" fill="#111d3a"/><rect x="14" y="15" width="1" height="1" fill="#e3a01e"/><rect x="15" y="15" width="2" height="1" fill="#f6cd5f"/><rect x="17" y="15" width="3" height="1" fill="#e3a01e"/><rect x="20" y="15" width="7" height="1" fill="#111d3a"/><rect x="27" y="15" width="1" height="1" fill="#f6cd5f"/><rect x="28" y="15" width="1" height="1" fill="#ffffff"/><rect x="29" y="15" width="2" height="1" fill="#111d3a"/><rect x="31" y="15" width="1" height="1" fill="#ffffff"/><rect x="32" y="15" width="4" height="1" fill="#e3a01e"/><rect x="36" y="15" width="1" height="1" fill="#111d3a"/><rect x="12" y="16" width="2" height="1" fill="#111d3a"/><rect x="14" y="16" width="2" height="1" fill="#e3a01e"/><rect x="16" y="16" width="2" height="1" fill="#f6cd5f"/><rect x="18" y="16" width="2" height="1" fill="#e3a01e"/><rect x="20" y="16" width="2" height="1" fill="#111d3a"/><rect x="22" y="16" width="3" height="1" fill="#e3a01e"/><rect x="25" y="16" width="2" height="1" fill="#111d3a"/><rect x="27" y="16" width="2" height="1" fill="#f6cd5f"/><rect x="29" y="16" width="7" height="1" fill="#e3a01e"/><rect x="36" y="16" width="1" height="1" fill="#111d3a"/><rect x="9" y="17" width="3" height="1" fill="#111d3a"/><rect x="12" y="17" width="1" height="1" fill="#8fe4ff"/><rect x="13" y="17" width="1" height="1" fill="#3fb2e6"/><rect x="14" y="17" width="3" height="1" fill="#e3a01e"/><rect x="17" y="17" width="2" height="1" fill="#f6cd5f"/><rect x="19" y="17" width="1" height="1" fill="#e3a01e"/><rect x="20" y="17" width="2" height="1" fill="#111d3a"/><rect x="22" y="17" width="3" height="1" fill="#e3a01e"/><rect x="25" y="17" width="2" height="1" fill="#111d3a"/><rect x="27" y="17" width="1" height="1" fill="#e3a01e"/><rect x="28" y="17" width="2" height="1" fill="#f6cd5f"/><rect x="30" y="17" width="6" height="1" fill="#e3a01e"/><rect x="36" y="17" width="1" height="1" fill="#111d3a"/><rect x="6" y="18" width="3" height="1" fill="#111d3a"/><rect x="9" y="18" width="1" height="1" fill="#3fb2e6"/><rect x="10" y="18" width="2" height="1" fill="#8fe4ff"/><rect x="12" y="18" width="2" height="1" fill="#3fb2e6"/><rect x="14" y="18" width="4" height="1" fill="#e3a01e"/><rect x="18" y="18" width="2" height="1" fill="#f6cd5f"/><rect x="20" y="18" width="7" height="1" fill="#111d3a"/><rect x="27" y="18" width="2" height="1" fill="#e3a01e"/><rect x="29" y="18" width="2" height="1" fill="#f6cd5f"/><rect x="31" y="18" width="5" height="1" fill="#e3a01e"/><rect x="36" y="18" width="1" height="1" fill="#111d3a"/><rect x="5" y="19" width="1" height="1" fill="#111d3a"/><rect x="6" y="19" width="3" height="1" fill="#3fb2e6"/><rect x="9" y="19" width="2" height="1" fill="#8fe4ff"/><rect x="11" y="19" width="4" height="1" fill="#3fb2e6"/><rect x="15" y="19" width="4" height="1" fill="#e3a01e"/><rect x="19" y="19" width="2" height="1" fill="#f6cd5f"/><rect x="21" y="19" width="2" height="1" fill="#111d3a"/><rect x="23" y="19" width="1" height="1" fill="#e3a01e"/><rect x="24" y="19" width="2" height="1" fill="#111d3a"/><rect x="26" y="19" width="4" height="1" fill="#e3a01e"/><rect x="30" y="19" width="2" height="1" fill="#f6cd5f"/><rect x="32" y="19" width="3" height="1" fill="#e3a01e"/><rect x="35" y="19" width="1" height="1" fill="#e2564d"/><rect x="36" y="19" width="1" height="1" fill="#111d3a"/><rect x="4" y="20" width="1" height="1" fill="#111d3a"/><rect x="5" y="20" width="3" height="1" fill="#3fb2e6"/><rect x="8" y="20" width="2" height="1" fill="#8fe4ff"/><rect x="10" y="20" width="4" height="1" fill="#3fb2e6"/><rect x="14" y="20" width="2" height="1" fill="#111d3a"/><rect x="16" y="20" width="4" height="1" fill="#bd7a12"/><rect x="20" y="20" width="1" height="1" fill="#e3a01e"/><rect x="21" y="20" width="2" height="1" fill="#111d3a"/><rect x="23" y="20" width="1" height="1" fill="#bd7a12"/><rect x="24" y="20" width="2" height="1" fill="#111d3a"/><rect x="26" y="20" width="5" height="1" fill="#bd7a12"/><rect x="31" y="20" width="1" height="1" fill="#e3a01e"/><rect x="32" y="20" width="1" height="1" fill="#bd7a12"/><rect x="33" y="20" width="3" height="1" fill="#e2564d"/><rect x="36" y="20" width="1" height="1" fill="#111d3a"/><rect x="4" y="21" width="1" height="1" fill="#111d3a"/><rect x="5" y="21" width="2" height="1" fill="#3fb2e6"/><rect x="7" y="21" width="2" height="1" fill="#8fe4ff"/><rect x="9" y="21" width="4" height="1" fill="#3fb2e6"/><rect x="13" y="21" width="1" height="1" fill="#111d3a"/><rect x="16" y="21" width="2" height="1" fill="#111d3a"/><rect x="18" y="21" width="3" height="1" fill="#bd7a12"/><rect x="21" y="21" width="2" height="1" fill="#e3a01e"/><rect x="23" y="21" width="9" height="1" fill="#bd7a12"/><rect x="32" y="21" width="3" height="1" fill="#3fb2e6"/><rect x="35" y="21" width="1" height="1" fill="#111d3a"/><rect x="4" y="22" width="1" height="1" fill="#111d3a"/><rect x="5" y="22" width="1" height="1" fill="#3fb2e6"/><rect x="6" y="22" width="2" height="1" fill="#8fe4ff"/><rect x="8" y="22" width="4" height="1" fill="#3fb2e6"/><rect x="12" y="22" width="1" height="1" fill="#111d3a"/><rect x="16" y="22" width="4" height="1" fill="#111d3a"/><rect x="20" y="22" width="2" height="1" fill="#bd7a12"/><rect x="22" y="22" width="2" height="1" fill="#e3a01e"/><rect x="24" y="22" width="6" height="1" fill="#bd7a12"/><rect x="30" y="22" width="4" height="1" fill="#3fb2e6"/><rect x="34" y="22" width="1" height="1" fill="#111d3a"/><rect x="4" y="23" width="1" height="1" fill="#111d3a"/><rect x="5" y="23" width="2" height="1" fill="#8fe4ff"/><rect x="7" y="23" width="4" height="1" fill="#3fb2e6"/><rect x="11" y="23" width="1" height="1" fill="#111d3a"/><rect x="15" y="23" width="1" height="1" fill="#111d3a"/><rect x="16" y="23" width="3" height="1" fill="#3fb2e6"/><rect x="19" y="23" width="2" height="1" fill="#8fe4ff"/><rect x="21" y="23" width="5" height="1" fill="#3fb2e6"/><rect x="26" y="23" width="2" height="1" fill="#8fe4ff"/><rect x="28" y="23" width="5" height="1" fill="#3fb2e6"/><rect x="33" y="23" width="1" height="1" fill="#111d3a"/><rect x="4" y="24" width="1" height="1" fill="#111d3a"/><rect x="5" y="24" width="1" height="1" fill="#8fe4ff"/><rect x="6" y="24" width="4" height="1" fill="#3fb2e6"/><rect x="10" y="24" width="1" height="1" fill="#111d3a"/><rect x="16" y="24" width="1" height="1" fill="#111d3a"/><rect x="17" y="24" width="1" height="1" fill="#3fb2e6"/><rect x="18" y="24" width="2" height="1" fill="#8fe4ff"/><rect x="20" y="24" width="5" height="1" fill="#3fb2e6"/><rect x="25" y="24" width="2" height="1" fill="#8fe4ff"/><rect x="27" y="24" width="5" height="1" fill="#3fb2e6"/><rect x="32" y="24" width="1" height="1" fill="#111d3a"/><rect x="4" y="25" width="1" height="1" fill="#111d3a"/><rect x="5" y="25" width="4" height="1" fill="#3fb2e6"/><rect x="9" y="25" width="1" height="1" fill="#111d3a"/><rect x="17" y="25" width="1" height="1" fill="#111d3a"/><rect x="18" y="25" width="1" height="1" fill="#8fe4ff"/><rect x="19" y="25" width="5" height="1" fill="#3fb2e6"/><rect x="24" y="25" width="2" height="1" fill="#8fe4ff"/><rect x="26" y="25" width="2" height="1" fill="#3fb2e6"/><rect x="28" y="25" width="2" height="1" fill="#111d3a"/><rect x="30" y="25" width="1" height="1" fill="#3fb2e6"/><rect x="31" y="25" width="1" height="1" fill="#111d3a"/><rect x="4" y="26" width="1" height="1" fill="#111d3a"/><rect x="5" y="26" width="3" height="1" fill="#3fb2e6"/><rect x="8" y="26" width="1" height="1" fill="#111d3a"/><rect x="18" y="26" width="1" height="1" fill="#111d3a"/><rect x="19" y="26" width="4" height="1" fill="#3fb2e6"/><rect x="23" y="26" width="2" height="1" fill="#8fe4ff"/><rect x="25" y="26" width="2" height="1" fill="#3fb2e6"/><rect x="27" y="26" width="1" height="1" fill="#111d3a"/><rect x="30" y="26" width="1" height="1" fill="#111d3a"/><rect x="4" y="27" width="1" height="1" fill="#111d3a"/><rect x="5" y="27" width="2" height="1" fill="#3fb2e6"/><rect x="7" y="27" width="1" height="1" fill="#111d3a"/><rect x="19" y="27" width="1" height="1" fill="#111d3a"/><rect x="20" y="27" width="2" height="1" fill="#3fb2e6"/><rect x="22" y="27" width="2" height="1" fill="#8fe4ff"/><rect x="24" y="27" width="2" height="1" fill="#3fb2e6"/><rect x="26" y="27" width="1" height="1" fill="#111d3a"/><rect x="4" y="28" width="1" height="1" fill="#111d3a"/><rect x="5" y="28" width="1" height="1" fill="#3fb2e6"/><rect x="6" y="28" width="1" height="1" fill="#111d3a"/><rect x="20" y="28" width="2" height="1" fill="#111d3a"/><rect x="22" y="28" width="1" height="1" fill="#8fe4ff"/><rect x="23" y="28" width="2" height="1" fill="#3fb2e6"/><rect x="25" y="28" width="1" height="1" fill="#111d3a"/><rect x="5" y="29" width="1" height="1" fill="#111d3a"/><rect x="22" y="29" width="3" height="1" fill="#111d3a"/></svg>